# xmcd
#
# Track frame offsets:
#	150
#	14705
#	24809
#	37808
#	55867
#	68806
#	87527
#	101222
#	118676
#	140023
#	158507
#	177709
#	190391
#	203769
#	218122
#	231918
#	243666
#	272499
#	288754
#	305441
#
# Disc length: 4217 seconds
#
# Revision: 0
# Processed by: cddbd v1.5.2PL0 Copyright (c) Steve Scherf et al.
# Submitted via: audiograbber 1.83.01
#
DISCID=22107714
DTITLE=The Hollies - Hallo! The Hollies!
DYEAR=1978
DGENRE=Rock
TTITLE0=Long Cool Woman
TTITLE1=Look Through Any Window
TTITLE2=Carrie Anne
TTITLE3=Sandy (4th Of July, Asbury Park)
TTITLE4=Bus Stop
TTITLE5=I'm Down
TTITLE6=Jennifer Eccles
TTITLE7=Too Young To Be Married
TTITLE8=Write On
TTITLE9=The Air That I Breathe
TTITLE10=He Ain't Heavy, He's My Brother
TTITLE11=Stop Stop Stop
TTITLE12=Sorry Suzanne
TTITLE13=On A Carousel
TTITLE14=Dear Eloise
TTITLE15=Listen To Me
TTITLE16=When I'm Yours
TTITLE17=Star
TTITLE18=I Can't Tell The Bottom From The Top
TTITLE19=I'm Alive
EXTD=
EXTT0=
EXTT1=
EXTT2=
EXTT3=
EXTT4=
EXTT5=
EXTT6=
EXTT7=
EXTT8=
EXTT9=
EXTT10=
EXTT11=
EXTT12=
EXTT13=
EXTT14=
EXTT15=
EXTT16=
EXTT17=
EXTT18=
EXTT19=
PLAYORDER=
